<svg height="32" width="32" xmlns="http://www.w3.org/2000/svg"><path d="m16 31.99c-8.831 0-15.99-7.159-15.99-15.99s7.159-15.99 15.99-15.99 15.99 7.159 15.99 15.99-7.159 15.99-15.99 15.99zm0-1.98c7.738 0 14.01-6.272 14.01-14.01s-6.272-14.01-14.01-14.01-14.01 6.272-14.01 14.01 6.272 14.01 14.01 14.01zm8.01-13.01a.99.99 0 0 1 1.98 0c0 5.517-4.473 9.99-9.99 9.99s-9.99-4.473-9.99-9.99a.99.99 0 0 1 1.98 0 8.01 8.01 0 1 0 16.02 0zm1.58-5.33a.99.99 0 1 1 -1.866.66 2.01 2.01 0 0 0 -3.79 0 .99.99 0 1 1 -1.867-.66 3.99 3.99 0 0 1 7.524 0zm-11.657 0a.99.99 0 1 1 -1.866.66 2.01 2.01 0 0 0 -3.79 0 .99.99 0 1 1 -1.868-.66 3.99 3.99 0 0 1 7.524 0z"/></svg>