<svg height="24" width="38" xmlns="http://www.w3.org/2000/svg"><path d="m23.39 15.693a1.094 1.094 0 1 0 .877-1.731l-4.243-5.463-2.29.76a2.864 2.864 0 0 1 -3.502-1.524 2.903 2.903 0 0 1 .425-3.105 2.021 2.021 0 0 0 -.999.132l-6.002 2.412v7.037h2.457c.324 0 .632.138.847.38l5.308 5.98a.885.885 0 0 0 .982.254.9.9 0 0 0 .582-.844v-.465l-1.145-1.15a1.133 1.133 0 0 1 1.606-1.598l1.31 1.317.048.019c.42.168.894.117 1.268-.138.261-.177.45-.438.541-.734l-1.823-1.832a1.133 1.133 0 0 1 1.606-1.598l1.881 1.89h.266zm.509 2.245a1.134 1.134 0 0 1 -.292.018 3.64 3.64 0 0 1 -1.414 1.883 3.62 3.62 0 0 1 -2.133.626 3.164 3.164 0 0 1 -2.018 2.482 3.143 3.143 0 0 1 -3.48-.887l-4.958-5.584h-2.494a2.527 2.527 0 0 1 -2.093.988h-3.017a1.133 1.133 0 0 1 0-2.265h3.062a.34.34 0 0 0 .26-.108c.016-.073.04-.143.07-.21v-8.416a1.125 1.125 0 0 1 0-.11v-1.086c-.008-.18-.156-.316-.376-.307h-3.016a1.133 1.133 0 1 1 0-2.265h2.969c1.269-.053 2.361.822 2.628 2.06l5.214-2.096a4.257 4.257 0 0 1 1.6-.311 4.32 4.32 0 0 1 2.567.856l3.633-1.836a4.65 4.65 0 0 1 3.71-.216l6.589 2.422a2.517 2.517 0 0 1 2.004-.88h3.016a1.133 1.133 0 1 1 0 2.266l-3.063-.001c-.173-.008-.321.129-.328.256l-.002 9.673c.009.18.157.317.377.309h3.016a1.133 1.133 0 1 1 0 2.265l-2.97-.001a2.553 2.553 0 0 1 -2.034-.875zm6.376-12.182-6.737-2.476a2.386 2.386 0 0 0 -1.904.111l-5.064 2.559a.636.636 0 0 0 -.282.837.6.6 0 0 0 .733.324l3.037-1.01a1.12 1.12 0 0 1 .023-.007l2.17-.72a1.133 1.133 0 0 1 .713 2.15l-.66.22 3.764 4.847c.543.729.76 1.632.63 2.503l3.575-.686v-8.652z"/></svg>