<svg height="34" width="33" xmlns="http://www.w3.org/2000/svg"><path d="m17.842 8.085a12.588 12.588 0 0 1 7.456 1.29 8.328 8.328 0 0 1 1.965-3.433 3.271 3.271 0 0 1 -1.044-1.525c-4.836-.068-7.348 1.435-8.377 3.668zm-2.363.556c.912-3.684 4.192-6.354 10.74-6.282.42-1.294 1.612-2.233 3.027-2.233 1.769 0 3.188 1.468 3.188 3.262 0 1.675-1.238 3.066-2.843 3.242a6.236 6.236 0 0 0 -2.455 3.9c.219.164.433.336.643.516a1.03 1.03 0 1 1 -1.339 1.563c-3.036-2.6-7.188-3.292-10.855-1.812a1.03 1.03 0 1 1 -.77-1.91c.22-.088.441-.17.664-.246zm13.727-4.05a1.03 1.03 0 0 1 .08 0c.598-.023 1.09-.546 1.09-1.203 0-.673-.514-1.204-1.13-1.204-.617 0-1.13.531-1.13 1.204 0 .657.491 1.18 1.09 1.202zm-7.766 23.141c.023-.009.046-.016.07-.023 1.6-.529 2.944-1.683 3.748-3.206a1.046 1.046 0 0 1 .04-.077c.32-.625.549-1.311.669-2.04a1.03 1.03 0 0 1 2.03.334 9.055 9.055 0 0 1 -.499 1.825c2.765 2 3.722 5.709 1.73 7.783-2.193 2.264-6.19.914-8.004-2.415a8.386 8.386 0 0 1 -5.068-.538c.052 1.124-.281 2.19-1.05 2.984-1.723 1.782-4.77 1.332-6.821-.79-2.036-2.104-2.464-5.196-.764-6.954.967-.999 2.35-1.296 3.74-.99a9.106 9.106 0 0 1 -.245-1.235 9.374 9.374 0 0 1 -1.935-1.552c-1.854-1.915-2.777-4.342-2.355-6.189l-.208.115a1.031 1.031 0 0 1 -.021.011l-1.894 1.045a1.03 1.03 0 1 1 -.993-1.803l.914-.503-4.374-6.421a1.03 1.03 0 0 1 -.168-.732l.829-5.514a1.03 1.03 0 0 1 1.466-.773l4.887 2.365c.24.116.425.32.517.57l2.693 7.283.858-.473a1.03 1.03 0 1 1 .993 1.803l-1.134.625c1.137.255 2.334.888 3.414 1.826.293-.218.602-.418.927-.6 3.54-1.98 7.94-1.16 10.58 1.968a1.03 1.03 0 0 1 -1.573 1.328c-2.007-2.378-5.326-2.997-8.002-1.5-.448.25-.858.55-1.226.887a1.045 1.045 0 0 1 -.1.093c-1.432 1.37-2.209 3.345-2.1 5.373.007.048.01.096.01.144.033.442.108.885.228 1.325.26.954.707 1.808 1.292 2.528.067.076.133.153.197.232 1.286 1.443 3.15 2.277 5.137 2.168a6.306 6.306 0 0 0 1.565-.286zm5.079-1.348a8.673 8.673 0 0 1 -3.31 2.85c1.257 2.009 3.513 2.722 4.537 1.665.966-1.006.443-3.165-1.227-4.515zm-13.542.573a4.988 4.988 0 0 0 -.113-.121c-1.321-1.366-3.058-1.622-3.863-.79-.83.857-.573 2.711.763 4.093 1.32 1.365 3.058 1.622 3.863.79.761-.788.607-2.416-.458-3.747a8.768 8.768 0 0 1 -.192-.225zm-4.426-15.661-2.656-7.185-3.257-1.576-.56 3.733 4.258 6.248zm4.452 4.2c-1.596-1.32-3.304-1.657-3.97-.97-.786.813-.245 3.051 1.532 4.887.154.161.315.315.482.461a8.984 8.984 0 0 1 1.956-4.377zm2.261 3.515a1.03 1.03 0 1 1 2.058 0v2.231a1.03 1.03 0 1 1 -2.058 0v-2.23zm4.318 0a1.03 1.03 0 1 1 2.058 0v2.231a1.03 1.03 0 1 1 -2.058 0v-2.23zm7.708 4.525a1.03 1.03 0 0 1 -.615-1.964c2.472-.773 4.02-2.58 3.653-3.73-.346-1.069-2.44-1.559-4.772-.769a1.03 1.03 0 0 1 -.66-1.95c3.278-1.11 6.608-.331 7.391 2.089.795 2.49-1.575 5.254-4.997 6.324z"/></svg>