<svg height="34" width="33" xmlns="http://www.w3.org/2000/svg"><path d="m27.955.97c.67.004 1.279.396 1.554.994.285.6.205 1.31-.206 1.829l-1.384 1.754 1.389 1.758c.41.52.491 1.229.212 1.818-.28.61-.89 1.002-1.565 1.005h-8.695v2.43c.584.155 1.117.512 1.53 1.056l11.487 18.243a1.03 1.03 0 0 1 -.87 1.577h-30.407a1.03 1.03 0 0 1 -.9-1.528l5.068-9.122a1.03 1.03 0 0 1 1.723-.118l2.042 2.723 1.906-3.026c.02-.037.043-.073.068-.108l5.493-8.72c.221-.288.494-.525.8-.702v-10.833c0-.568.461-1.03 1.03-1.03zm-8.696 7.1h8.03l-1.141-1.445a1.749 1.749 0 0 1 .002-2.158l1.134-1.438h-8.025v5.04zm-.917 6.49a.57.57 0 0 0 -.255.15l-4.995 7.934 2.49 2.092c.127.108.317.1.434-.017l.869-.87a2.38 2.38 0 0 1 3.366 0l.867.87a.323.323 0 0 0 .439.015l2.488-2.091-4.942-7.854a.675.675 0 0 0 -.59-.262 1.024 1.024 0 0 1 -.17.034zm4.542 11.747a2.38 2.38 0 0 1 -3.222-.134l-.867-.868a.322.322 0 0 0 -.455 0l-.868.869a2.38 2.38 0 0 1 -3.218.135l-2.27-1.907-2.088 3.318c-.012.02-.024.04-.038.06l-2.264 3.596h21.948l-4.39-6.975zm-15.125.946-1.562-2.082-3.448 6.205h2.413z"/></svg>