<svg height="33" width="34" xmlns="http://www.w3.org/2000/svg"><path d="m25.326 19.253c0 .344-.172.665-.458.856l-2.583 1.722v3.503a1.03 1.03 0 1 1 -2.058 0v-4.054c0-.344.172-.666.458-.856l2.583-1.722v-1.638a3.057 3.057 0 0 1 1.029-5.935 3.056 3.056 0 0 1 1.029 5.935zm-18.276-5.068a3.056 3.056 0 1 1 4.086 2.879v1.638l2.582 1.722c.286.19.458.512.458.856v4.054a1.03 1.03 0 1 1 -2.058 0v-3.504l-2.582-1.722a1.03 1.03 0 0 1 -.459-.856v-2.19a3.057 3.057 0 0 1 -2.027-2.878zm7.095-5.067a3.056 3.056 0 1 1 4.085 2.878v17.094c.228-.136.43-.317.59-.536a1.03 1.03 0 0 1 1.753.154 3.025 3.025 0 0 0 5.506-2.498 1.03 1.03 0 0 1 .367-1.243c.136-.094.26-.204.37-.327a1.03 1.03 0 0 1 .686-.342 2.009 2.009 0 0 0 1.236-3.444 1.03 1.03 0 0 1 .436-1.73 3.025 3.025 0 0 0 0-5.82 1.03 1.03 0 0 1 -.437-1.73 2.01 2.01 0 0 0 -1.236-3.446 1.03 1.03 0 0 1 -.685-.341 2.066 2.066 0 0 0 -.37-.328 1.03 1.03 0 0 1 -.367-1.242 3.025 3.025 0 0 0 -5.506-2.499 1.03 1.03 0 0 1 -1.752.155 2.01 2.01 0 0 0 -3.24 0 1.03 1.03 0 0 1 -1.752-.155 3.025 3.025 0 0 0 -5.506 2.499 1.03 1.03 0 0 1 -.366 1.242c-.136.094-.26.204-.37.328a1.03 1.03 0 0 1 -.686.341 2.01 2.01 0 0 0 -1.236 3.446 1.03 1.03 0 0 1 -.436 1.73 3.025 3.025 0 0 0 0 5.82 1.03 1.03 0 0 1 .436 1.73 2.009 2.009 0 0 0 1.235 3.443c.264.022.51.144.686.342.11.123.235.233.37.327.4.276.554.794.367 1.243a3.025 3.025 0 0 0 5.506 2.498 1.03 1.03 0 0 1 1.753-.154c.16.219.362.4.59.536v-17.093a3.057 3.057 0 0 1 -2.027-2.878zm.782 21.617a5.085 5.085 0 0 1 -8.772-4.475 4.067 4.067 0 0 1 -2.763-5.716 5.084 5.084 0 0 1 0-8.663 4.068 4.068 0 0 1 2.763-5.716 5.085 5.085 0 0 1 8.772-4.476 4.068 4.068 0 0 1 4.548 0 5.085 5.085 0 0 1 8.772 4.476 4.069 4.069 0 0 1 2.763 5.716 5.084 5.084 0 0 1 0 8.663 4.067 4.067 0 0 1 -2.763 5.716 5.085 5.085 0 0 1 -8.772 4.475 4.068 4.068 0 0 1 -4.548 0zm2.274-20.62a.998.998 0 1 0 0-1.995.998.998 0 0 0 0 1.996zm-7.094 5.068a.998.998 0 1 0 0-1.996.998.998 0 0 0 0 1.996zm13.16 4.07.458-.857-.458.306v.55zm1.029-4.07a.998.998 0 1 0 0-1.996.998.998 0 0 0 0 1.996z"/></svg>