<svg height="32" width="34" xmlns="http://www.w3.org/2000/svg"><path d="m5.072.97h24.262a3.087 3.087 0 0 1 3.087 3.088v8.131a3.087 3.087 0 0 1 -3.087 3.087h-24.262a3.087 3.087 0 0 1 -3.088-3.087v-8.13a3.087 3.087 0 0 1 3.088-3.089zm0 2.06c-.569 0-1.03.46-1.03 1.028v8.131c0 .568.461 1.03 1.03 1.03h24.262c.568 0 1.029-.462 1.029-1.03v-8.13c0-.57-.461-1.03-1.03-1.03h-24.26zm1.996 4.082a1.03 1.03 0 1 1 0-2.059h2.027a1.03 1.03 0 1 1 0 2.059zm0 4.082a1.03 1.03 0 1 1 0-2.058h2.027a1.03 1.03 0 1 1 0 2.058zm6.08-4.082a1.03 1.03 0 1 1 0-2.059h2.028a1.03 1.03 0 1 1 0 2.059h-2.027zm0 4.082a1.03 1.03 0 1 1 0-2.058h8.109a1.03 1.03 0 1 1 0 2.058h-8.108zm6.082-4.082a1.03 1.03 0 1 1 0-2.059h2.027a1.03 1.03 0 1 1 0 2.059zm6.08 0a1.03 1.03 0 1 1 0-2.059h2.028a1.03 1.03 0 1 1 0 2.059zm0 4.082a1.03 1.03 0 1 1 0-2.058h2.028a1.03 1.03 0 1 1 0 2.058zm-17.9 9.185a3.02 3.02 0 0 0 -2.623 1.537c-.469.824-.846 1.89-1.133 3.138a25.596 25.596 0 0 0 -.547 3.755 28.817 28.817 0 0 0 -.078 1.764 1.03 1.03 0 1 1 -2.058.007c0-.416.02-1.086.084-1.927a27.6 27.6 0 0 1 .593-4.06c.328-1.427.77-2.674 1.349-3.693a5.079 5.079 0 0 1 4.412-2.579h3.558c.593 0 1.157.26 1.544.71.386.447.56 1.04.478 1.629l-.568 4.006c1.943-.806 3.312-.615 3.745.91.372 1.313-.495 3.337-2.192 5.616a1.03 1.03 0 0 1 -1.65-1.23c1.219-1.638 1.881-3.081 1.879-3.681a1.725 1.725 0 0 0 -.077.007c-.519.063-1.364.418-2.472 1.087a1.03 1.03 0 0 1 -1.551-1.025l.847-5.97h-3.54zm14.006.279a2.056 2.056 0 0 1 .478-1.628c.388-.45.951-.708 1.545-.709h3.563a5.078 5.078 0 0 1 4.406 2.578c.58 1.02 1.021 2.267 1.35 3.694a27.6 27.6 0 0 1 .592 4.06c.064.841.085 1.51.085 1.924a1.03 1.03 0 1 1 -2.059-.004 28.819 28.819 0 0 0 -.078-1.765 25.597 25.597 0 0 0 -.547-3.754c-.286-1.248-.664-2.314-1.133-3.139a3.02 3.02 0 0 0 -2.618-1.535h-3.545l.848 5.97a1.03 1.03 0 0 1 -1.551 1.026c-1.108-.67-1.954-1.024-2.473-1.087a1.725 1.725 0 0 0 -.077-.007c-.002.6.66 2.043 1.88 3.681a1.03 1.03 0 0 1 -1.65 1.23c-1.698-2.28-2.565-4.303-2.192-5.616.432-1.525 1.802-1.716 3.745-.91l-.569-4.008z"/></svg>